<?xml version="1.0" encoding="UTF-8" standalone="no"?><!DOCTYPE svg PUBLIC "-//W3C//DTD SVG 1.1//EN" "http://www.w3.org/Graphics/SVG/1.1/DTD/svg11.dtd"><svg width="100%" height="100%" viewBox="0 0 342 205" version="1.1" xmlns="http://www.w3.org/2000/svg" xmlns:xlink="http://www.w3.org/1999/xlink" xml:space="preserve" xmlns:serif="http://www.serif.com/" style="fill-rule:evenodd;clip-rule:evenodd;stroke-linejoin:round;stroke-miterlimit:2;"><g><path d="M168.106,0.001c119.21,-0.372 173.049,75.37 173.049,96.29c0,17.64 -37.978,107.248 -173.049,107.725c-121.829,0.43 -168.106,-92.833 -168.106,-105.576c0,-20.856 61.487,-98.106 168.106,-98.439Zm1.95,18.581c-44.852,0 -81.266,36.414 -81.266,81.266c0,44.852 36.414,81.266 81.266,81.266c44.852,0 81.266,-36.414 81.266,-81.266c0,-44.852 -36.414,-81.266 -81.266,-81.266Zm0.522,33.002c27.836,0 50.436,22.6 50.436,50.436c0,27.836 -22.6,50.436 -50.436,50.436c-27.836,0 -50.436,-22.6 -50.436,-50.436c0,-27.836 22.6,-50.436 50.436,-50.436Z" style="fill:#333;"/><clipPath id="_clip1"><path d="M168.106,0.001c119.21,-0.372 173.049,75.37 173.049,96.29c0,17.64 -37.978,107.248 -173.049,107.725c-121.829,0.43 -168.106,-92.833 -168.106,-105.576c0,-20.856 61.487,-98.106 168.106,-98.439Zm1.95,18.581c-44.852,0 -81.266,36.414 -81.266,81.266c0,44.852 36.414,81.266 81.266,81.266c44.852,0 81.266,-36.414 81.266,-81.266c0,-44.852 -36.414,-81.266 -81.266,-81.266Zm0.522,33.002c27.836,0 50.436,22.6 50.436,50.436c0,27.836 -22.6,50.436 -50.436,50.436c-27.836,0 -50.436,-22.6 -50.436,-50.436c0,-27.836 22.6,-50.436 50.436,-50.436Z"/></clipPath><g clip-path="url(#_clip1)"><circle cx="195.762" cy="71.168" r="15.21" style="fill:#fff;"/></g></g></svg>