<?xml version="1.0" encoding="UTF-8" standalone="no"?><!DOCTYPE svg PUBLIC "-//W3C//DTD SVG 1.1//EN" "http://www.w3.org/Graphics/SVG/1.1/DTD/svg11.dtd"><svg width="100%" height="100%" viewBox="0 0 342 231" version="1.1" xmlns="http://www.w3.org/2000/svg" xmlns:xlink="http://www.w3.org/1999/xlink" xml:space="preserve" xmlns:serif="http://www.serif.com/" style="fill-rule:evenodd;clip-rule:evenodd;stroke-linejoin:round;stroke-miterlimit:2;"><path d="M244.802,206.008c-20.072,6.98 -43.743,11.337 -71.427,11.337c-124.445,0 -173.375,-88.475 -173.375,-105.589c0,-11.273 24.528,-50.452 74.671,-75.88l9.616,9.616c-45.829,22.392 -70.038,56.778 -70.038,66.685c0,15.068 49.314,92.969 158.886,92.969c23.368,0 43.835,-3.525 61.575,-9.232l10.093,10.093Zm-147.034,-180.079c21.56,-7.74 46.743,-12.708 75.607,-12.708c116.852,0 167.78,78.725 167.78,97.411c0,12.806 -20.353,58.178 -73.217,85.466l-9.69,-9.69c48.752,-24.029 70.231,-63.949 70.231,-75.22c0,-16.453 -52.458,-85.769 -155.344,-85.769c-24.504,0 -46.348,4.066 -65.41,10.466l-9.956,-9.956Zm110.619,143.664c-10.721,7.482 -23.757,11.871 -37.81,11.871c-36.527,0 -66.181,-29.655 -66.181,-66.181c0,-14.053 4.39,-27.089 11.871,-37.81l12.308,12.308c-4.528,7.436 -7.137,16.167 -7.137,25.503c0,27.121 22.019,49.139 49.139,49.139c9.335,0 18.066,-2.609 25.503,-7.137l12.308,12.308Zm-75.594,-108.639c10.716,-7.47 23.742,-11.853 37.784,-11.853c36.527,0 66.181,29.655 66.181,66.181c0,14.042 -4.382,27.068 -11.853,37.784l-12.309,-12.309c4.517,-7.43 7.12,-16.151 7.12,-25.475c0,-27.121 -22.019,-49.139 -49.139,-49.139c-9.324,0 -18.044,2.602 -25.475,7.12l-12.309,-12.309Zm149.957,156.519c8.468,8.468 -1.515,18.451 -9.983,9.983l-214.235,-214.235c-8.506,-8.506 1.477,-18.489 9.983,-9.983l214.235,214.235Z" style="fill:#333;"/></svg>