<?xml version="1.0" encoding="UTF-8" standalone="no"?><!DOCTYPE svg PUBLIC "-//W3C//DTD SVG 1.1//EN" "http://www.w3.org/Graphics/SVG/1.1/DTD/svg11.dtd"><svg width="100%" height="100%" viewBox="0 0 1000 1000" version="1.1" xmlns="http://www.w3.org/2000/svg" xmlns:xlink="http://www.w3.org/1999/xlink" xml:space="preserve" xmlns:serif="http://www.serif.com/" style="fill-rule:evenodd;clip-rule:evenodd;stroke-linejoin:round;stroke-miterlimit:2;"><g><path d="M958.333,225l0,550c0,101.184 -82.149,183.333 -183.333,183.333l-550,0c-101.184,0 -183.333,-82.149 -183.333,-183.333l0,-550c0,-101.184 82.149,-183.333 183.333,-183.333l550,0c101.184,0 183.333,82.149 183.333,183.333Z" style="fill:#333;"/><path d="M1000,225l0,550c0,124.181 -100.819,225 -225,225l-550,0c-124.181,0 -225,-100.819 -225,-225l0,-550c0,-124.181 100.819,-225 225,-225l550,0c124.181,0 225,100.819 225,225Zm-41.667,0c0,-101.184 -82.149,-183.333 -183.333,-183.333l-550,0c-101.184,0 -183.333,82.149 -183.333,183.333l0,550c0,101.184 82.149,183.333 183.333,183.333l550,0c101.184,0 183.333,-82.149 183.333,-183.333l0,-550Z"/><path d="M991.667,225l0,550c0,119.582 -97.085,216.667 -216.667,216.667l-550,0c-119.582,0 -216.667,-97.085 -216.667,-216.667l0,-550c0,-119.582 97.085,-216.667 216.667,-216.667l550,0c119.582,0 216.667,97.085 216.667,216.667Zm-33.333,0c0,-101.184 -82.149,-183.333 -183.333,-183.333l-550,0c-101.184,0 -183.333,82.149 -183.333,183.333l0,550c0,101.184 82.149,183.333 183.333,183.333l550,0c101.184,0 183.333,-82.149 183.333,-183.333l0,-550Z" style="fill:#fff;"/><path d="M966.667,225l0,550c0,105.784 -85.883,191.667 -191.667,191.667l-550,0c-105.784,0 -191.667,-85.883 -191.667,-191.667l0,-550c0,-105.784 85.883,-191.667 191.667,-191.667l550,0c105.784,0 191.667,85.883 191.667,191.667Zm-8.333,0c0,-101.184 -82.149,-183.333 -183.333,-183.333l-550,0c-101.184,0 -183.333,82.149 -183.333,183.333l0,550c0,101.184 82.149,183.333 183.333,183.333l550,0c101.184,0 183.333,-82.149 183.333,-183.333l0,-550Z"/><path d="M193.9,538.311l14.821,-70.681c1.214,-5.789 6.319,-9.935 12.234,-9.935l23.812,0c2.872,-0 5.628,0.988 7.827,2.754c0.515,-0.237 1.026,-0.463 1.534,-0.678c6.705,-2.832 13.767,-4.258 21.191,-4.258c11.425,0 20.289,3.643 26.874,10.164c6.687,6.623 10.314,15.3 10.314,26.25c0,0.478 -0.016,1.01 -0.049,1.598l5.43,-25.895c0.477,-2.276 1.556,-4.297 3.048,-5.913c-0.73,-2.109 -0.891,-4.402 -0.425,-6.639l4.727,-22.692c1.208,-5.797 6.316,-9.951 12.237,-9.951l25.125,0c3.762,0 7.325,1.695 9.698,4.614c2.374,2.919 3.306,6.752 2.539,10.436l-4.727,22.692c-0.151,0.724 -0.362,1.422 -0.629,2.09c2.314,-2.818 5.818,-4.572 9.665,-4.572l23.637,0c2.515,-0 4.94,0.757 6.98,2.13c6.432,-2.911 13.022,-4.312 19.721,-4.312c10.353,0 18.195,2.644 23.802,6.945c0.904,0.693 1.763,1.424 2.574,2.192c1.611,-1.056 3.319,-2.057 5.127,-3.002c7.867,-4.112 16.047,-6.135 24.525,-6.135c11.171,0 19.721,3.431 25.966,9.394c5.473,5.226 8.836,11.793 9.797,19.819c3.888,-8.335 9.674,-15.032 17.309,-20.128c8.743,-5.835 20.234,-9.085 34.647,-9.085c15.677,0 27.067,3.836 34.562,10.125c3.426,2.876 6.161,6.011 8.223,9.396l1.528,-7.376c1.202,-5.803 6.314,-9.964 12.24,-9.964l2.074,-0l1.005,-4.865c0.707,-3.422 2.814,-6.393 5.811,-8.191l28.802,-17.281c4.261,-2.557 9.632,-2.346 13.68,0.535c4.048,2.882 6.005,7.888 4.984,12.751l-3.579,17.05c2.317,0.014 4.555,0.67 6.483,1.859c-0.229,-1.47 -0.197,-2.985 0.113,-4.476l4.727,-22.692c1.208,-5.797 6.316,-9.951 12.237,-9.951l25.125,0c3.762,0 7.325,1.695 9.698,4.614c2.374,2.919 3.306,6.752 2.539,10.436l-4.727,22.692c-0.475,2.282 -1.555,4.309 -3.051,5.929c0.732,2.114 0.892,4.413 0.422,6.655l-1.236,5.895c1.092,-1.358 2.243,-2.672 3.453,-3.943c12.038,-12.65 27.762,-19.2 47.356,-19.2c17.513,0 31.032,5.245 40.869,14.866c6.916,6.764 11.592,15.086 13.818,25.047l5.828,-27.796c1.214,-5.789 6.319,-9.935 12.234,-9.935l23.812,0c2.872,-0 5.628,0.988 7.827,2.754c0.515,-0.237 1.026,-0.463 1.534,-0.678c6.705,-2.832 13.767,-4.258 21.191,-4.258c11.425,0 20.289,3.643 26.874,10.164c6.687,6.623 10.314,15.3 10.314,26.25c0,3.708 -0.966,10.745 -3.156,21.07l-10.94,52.438c-1.209,5.795 -6.317,9.947 -12.237,9.947l-25.125,0c-3.765,-0 -7.33,-1.697 -9.703,-4.62c-2.374,-2.923 -3.303,-6.759 -2.531,-10.445l11.028,-52.614c0.689,-3.311 1.266,-6.46 1.656,-8.686c-0.907,0.445 -1.862,1.094 -2.92,1.819c-2.775,1.904 -4.932,4.441 -6.518,7.567l-0.047,0.092c-1.594,3.079 -3.178,9.418 -5.17,18.902l-7.965,38.046c-1.212,5.791 -6.318,9.939 -12.235,9.939l-25.125,0c-3.765,-0 -7.33,-1.697 -9.703,-4.62c-2.374,-2.923 -3.303,-6.76 -2.53,-10.445l1.833,-8.741c-1.331,1.822 -2.761,3.602 -4.291,5.34c-11.988,13.618 -27.951,20.648 -48.077,20.648c-10.916,0 -20.574,-2.273 -29.016,-6.627c-9.188,-4.738 -15.993,-11.496 -20.507,-20.182c-1.948,-3.748 -3.453,-7.62 -4.512,-11.617l-5.516,26.309c-1.214,5.789 -6.319,9.935 -12.234,9.935l-25.125,0c-2.166,-0 -4.266,-0.562 -6.111,-1.596c-1.449,1.078 -3.141,1.849 -4.982,2.221c-5.123,1.035 -10.383,1.557 -15.783,1.557c-12.669,0 -21.665,-3.198 -27.416,-8.059c-6.776,-5.727 -10.471,-13.548 -10.471,-23.729c0,-3.218 1.068,-10.664 3.504,-22.282l4.727,-22.607c-0.82,-0.212 -1.615,-0.507 -2.373,-0.879c-0.131,1.192 -0.293,2.407 -0.489,3.644c-0.511,3.238 -2.286,11.754 -5.352,25.543c-2.168,9.776 -3.38,16.599 -3.38,20.509c0,2.914 0.575,6.14 1.606,9.697c1.095,3.776 0.35,7.846 -2.011,10.99c-2.361,3.143 -6.063,4.993 -9.994,4.993l-24.425,0c-2.987,-0 -5.782,-1.06 -7.97,-2.87c-0.455,0.224 -0.914,0.442 -1.377,0.653c-6.5,2.964 -13.051,4.399 -19.63,4.399c-11.301,0 -20.573,-3.84 -27.935,-11.223c-4.452,-4.465 -7.624,-9.678 -9.425,-15.674l-3.108,14.786c-1.216,5.786 -6.32,9.929 -12.233,9.929l-25.125,0c-3.766,-0 -7.332,-1.698 -9.705,-4.623c-2.374,-2.924 -3.302,-6.763 -2.527,-10.449l11.899,-56.61c0.218,-1.06 0.423,-2.084 0.612,-3.05c-0.729,0.735 -1.439,1.616 -2.164,2.589l-0.047,0.062c-2.833,3.751 -4.847,10.537 -6.844,20.075l-8.844,42.076c-1.216,5.786 -6.32,9.929 -12.233,9.929l-25.125,0c-3.765,-0 -7.329,-1.697 -9.702,-4.619c-2.374,-2.922 -3.304,-6.758 -2.532,-10.443l11.729,-56.021c0.298,-1.434 0.566,-2.726 0.797,-3.877c-0.78,0.646 -1.493,1.402 -2.15,2.258c-1.474,1.92 -2.669,4.422 -3.763,7.519c-0.634,1.972 -1.603,6.205 -2.984,12.681l-8.924,42.566c-1.214,5.789 -6.319,9.935 -12.234,9.935l-25.125,0c-3.765,-0 -7.33,-1.697 -9.703,-4.62c-1.025,-1.262 -1.78,-2.694 -2.246,-4.211c-1.595,5.205 -6.418,8.831 -11.95,8.831l-25.125,0c-3.765,-0 -7.33,-1.697 -9.703,-4.62c-1.294,-1.593 -2.159,-3.458 -2.552,-5.422l-0.02,0.095c-1.209,5.795 -6.317,9.947 -12.237,9.947l-25.125,0c-3.765,-0 -7.33,-1.697 -9.703,-4.62c-2.374,-2.923 -3.303,-6.759 -2.531,-10.445l11.028,-52.614c0.689,-3.311 1.266,-6.46 1.656,-8.686c-0.907,0.445 -1.862,1.094 -2.92,1.819c-2.775,1.904 -4.932,4.441 -6.518,7.567l-0.047,0.092c-1.594,3.079 -3.178,9.418 -5.17,18.902l-7.965,38.046c-1.212,5.791 -6.318,9.939 -12.235,9.939l-25.125,0c-3.011,-0 -5.894,-1.085 -8.142,-3.015c-2.25,1.931 -5.134,3.015 -8.142,3.015l-25.038,0c-6.18,-0 -11.432,-4.516 -12.359,-10.625l-2.678,-17.652l-32.692,-0l-11.856,21.758c-2.19,4.018 -6.4,6.519 -10.976,6.519l-27.139,0c-4.449,-0 -8.562,-2.364 -10.801,-6.209c-2.239,-3.844 -2.266,-8.589 -0.071,-12.458l72.574,-127.946c2.22,-3.914 6.373,-6.333 10.873,-6.333l29.327,0c6.128,0 11.353,4.442 12.337,10.491l17.161,105.384Zm324.767,-28.665c0.559,-0.606 1.139,-1.198 1.741,-1.775c1.092,-1.048 2.311,-2.053 3.658,-3.007c-1.446,-0.936 -2.7,-2.172 -3.667,-3.65l-0.087,-0.135c-0.39,2.308 -0.875,4.877 -1.464,7.707l-0.181,0.86Zm154.148,23.413l6.668,-31.802c-0.281,0.019 -0.565,0.029 -0.85,0.029l-5.256,0l-6.055,28.884c-0.194,0.935 -0.378,1.845 -0.549,2.711l1.788,-0.163c1.446,-0.133 2.883,-0.011 4.254,0.341Zm-305.619,-66.532c0.101,-0.33 0.215,-0.654 0.342,-0.971c-0.154,0.188 -0.314,0.371 -0.479,0.55l0.137,0.421Zm-146.242,3.669l-19.435,92.687l25.125,0l7.966,-38.052c2.335,-11.113 4.436,-18.473 6.303,-22.081c2.568,-5.062 6.099,-9.135 10.593,-12.219c4.494,-3.084 8.579,-4.626 12.256,-4.626c3.385,0 6.026,0.916 7.923,2.749c1.897,1.833 2.845,4.349 2.845,7.549c0,1.513 -0.817,6.197 -2.451,14.051l-11.031,52.627l25.125,0l10.943,-52.453c1.926,-9.077 2.889,-15.244 2.889,-18.502c0,-7.215 -2.203,-13.004 -6.61,-17.368c-4.406,-4.364 -10.432,-6.546 -18.078,-6.546c-5.72,0 -11.162,1.091 -16.327,3.273c-5.165,2.182 -10.724,5.833 -16.677,10.953l2.451,-12.044l-23.812,0Zm158.192,0l-19.435,92.687l25.125,0l8.929,-42.591c1.576,-7.389 2.714,-12.131 3.414,-14.226c1.576,-4.48 3.458,-8.146 5.647,-10.997c2.189,-2.851 4.742,-5.091 7.66,-6.72c2.918,-1.629 5.749,-2.444 8.492,-2.444c2.918,0 5.209,0.785 6.872,2.356c1.663,1.571 2.495,3.578 2.495,6.022c0,1.92 -0.671,6.109 -2.014,12.568l-11.731,56.031l25.125,0l8.842,-42.067c2.51,-11.986 5.544,-20.335 9.105,-25.048c4.902,-6.575 10.476,-9.862 16.721,-9.862c3.093,0 5.413,0.742 6.96,2.226c1.547,1.484 2.32,3.506 2.32,6.066c0,0.931 -0.73,4.946 -2.189,12.044l-11.906,56.642l25.125,0l11.906,-56.642c1.634,-7.855 2.451,-13.382 2.451,-16.582c0,-6.517 -2.072,-11.753 -6.216,-15.71c-4.144,-3.957 -9.922,-5.935 -17.334,-5.935c-6.478,0 -12.723,1.571 -18.734,4.713c-6.011,3.142 -10.622,7.04 -13.832,11.695c-1.051,-5.12 -3.473,-9.135 -7.266,-12.044c-3.794,-2.909 -9.192,-4.364 -16.196,-4.364c-10.155,0 -19.843,4.48 -29.065,13.44l2.364,-11.259l-23.637,0Zm326.976,-35.259l-4.727,22.692l25.125,0l4.727,-22.692l-25.125,0Zm-80.19,53.849l12.169,0l-7.791,37.267c-2.159,10.299 -3.239,16.873 -3.239,19.724c0,6.051 2.014,10.779 6.041,14.182c4.027,3.404 10.476,5.106 19.347,5.106c4.552,0 8.988,-0.436 13.307,-1.309l3.939,-18.59c-4.436,0.407 -7.208,0.611 -8.317,0.611c-3.21,0 -5.428,-0.538 -6.653,-1.615c-1.226,-1.076 -1.838,-2.575 -1.838,-4.495c0,-0.989 0.73,-5.004 2.189,-12.044l8.142,-38.838l15.408,0l3.852,-18.59l-15.32,0l6.741,-32.117l-28.802,17.281l-3.064,14.837l-12.256,0l-3.852,18.59Zm72.836,-18.59l-19.435,92.687l25.125,0l19.435,-92.687l-25.125,0Zm159.68,0l-19.435,92.687l25.125,0l7.966,-38.052c2.335,-11.113 4.436,-18.473 6.303,-22.081c2.568,-5.062 6.099,-9.135 10.593,-12.219c4.494,-3.084 8.579,-4.626 12.256,-4.626c3.385,0 6.026,0.916 7.923,2.749c1.897,1.833 2.845,4.349 2.845,7.549c0,1.513 -0.817,6.197 -2.451,14.051l-11.031,52.627l25.125,0l10.943,-52.453c1.926,-9.077 2.889,-15.244 2.889,-18.502c0,-7.215 -2.203,-13.004 -6.61,-17.368c-4.406,-4.364 -10.432,-6.546 -18.078,-6.546c-5.72,0 -11.162,1.091 -16.327,3.273c-5.165,2.182 -10.724,5.833 -16.677,10.953l2.451,-12.044l-23.812,0Zm-125.625,54.198c0,7.331 1.663,14.197 4.99,20.597c3.327,6.4 8.375,11.346 15.145,14.837c6.77,3.491 14.532,5.237 23.287,5.237c16.166,0 29.065,-5.469 38.694,-16.408c9.63,-10.939 14.445,-23.914 14.445,-38.925c0,-12.742 -3.852,-22.881 -11.556,-30.416c-7.704,-7.535 -18.413,-11.302 -32.129,-11.302c-15.816,0 -28.583,5.106 -38.3,15.317c-9.717,10.211 -14.576,23.899 -14.576,41.063Zm71.611,-17.892c0,11.928 -3.327,22.052 -9.98,30.372c-4.669,5.877 -10.447,8.815 -17.334,8.815c-5.486,0 -10.038,-1.949 -13.657,-5.847c-3.618,-3.898 -5.428,-9.164 -5.428,-15.797c0,-5.353 1.167,-11.215 3.502,-17.586c2.335,-6.371 5.603,-11.229 9.805,-14.575c4.202,-3.346 9.017,-5.018 14.445,-5.018c5.486,0 9.965,1.789 13.438,5.367c3.473,3.578 5.209,8.335 5.209,14.27Zm-12.5,0c0,-2.271 -0.351,-4.195 -1.679,-5.564c-1.137,-1.171 -2.672,-1.573 -4.468,-1.573c-2.5,0 -4.723,0.756 -6.659,2.297c-2.588,2.06 -4.416,5.173 -5.854,9.097c-1.766,4.82 -2.739,9.236 -2.739,13.285c0,3.013 0.446,5.522 2.089,7.293c1.184,1.276 2.7,1.851 4.495,1.851c3.04,0 5.486,-1.497 7.547,-4.091l0.024,-0.031c4.932,-6.168 7.243,-13.723 7.243,-22.565Zm-636.024,28.103l4.29,28.277l25.038,0l-20.835,-127.946l-29.327,0l-72.574,127.946l27.139,0l15.408,-28.277l50.863,0Zm-3.239,-21.295l-38.432,0l30.99,-51.493l7.441,51.493Zm-14.436,-12.5l-0.365,-2.523l-1.519,2.523l1.883,0Zm191.887,-30.614l-19.435,92.687l25.125,0l19.435,-92.687l-25.125,0Zm7.354,-35.259l-4.727,22.692l25.125,0l4.727,-22.692l-25.125,0Zm217.896,61.529c0.934,-3.375 2.699,-5.978 5.296,-7.811c2.597,-1.833 6.143,-2.749 10.637,-2.749c4.26,0 7.47,0.902 9.63,2.706c2.159,1.804 3.239,4.044 3.239,6.72c0,2.095 -0.525,4.887 -1.576,8.378c-4.027,1.396 -12.023,2.589 -23.987,3.578c-14.182,1.105 -24.031,4.306 -29.546,9.6c-5.515,5.295 -8.273,12.364 -8.273,21.208c0,7.913 2.51,14.386 7.529,19.419c5.019,5.033 11.381,7.549 19.085,7.549c4.844,0 9.659,-1.091 14.445,-3.273c4.786,-2.182 9.017,-5.309 12.694,-9.382c0.233,3.607 0.846,7.098 1.838,10.473l24.425,0c-1.401,-4.829 -2.101,-9.222 -2.101,-13.179c0,-4.422 1.226,-12.16 3.677,-23.215c2.976,-13.382 4.713,-21.644 5.209,-24.786c0.496,-3.142 0.744,-6.109 0.744,-8.902c0,-6.924 -2.86,-12.786 -8.579,-17.586c-5.72,-4.8 -14.561,-7.2 -26.526,-7.2c-11.497,0 -20.733,2.327 -27.708,6.982c-6.974,4.655 -11.862,11.113 -14.664,19.375l24.512,2.095Zm23.899,23.215l-0.7,3.316c-1.284,6.109 -2.758,10.604 -4.421,13.484c-1.663,2.88 -4.173,5.237 -7.529,7.069c-3.356,1.833 -6.931,2.749 -10.724,2.749c-3.443,0 -6.216,-1.004 -8.317,-3.011c-2.101,-2.007 -3.152,-4.466 -3.152,-7.375c0,-3.549 1.372,-6.371 4.115,-8.466c3.852,-2.909 12.081,-5.12 24.687,-6.633c2.51,-0.349 4.523,-0.727 6.041,-1.135Z" style="fill:#fff;"/></g></svg>