<?xml version="1.0" encoding="UTF-8" standalone="no"?><!DOCTYPE svg PUBLIC "-//W3C//DTD SVG 1.1//EN" "http://www.w3.org/Graphics/SVG/1.1/DTD/svg11.dtd"><svg width="100%" height="100%" viewBox="0 0 138 111" version="1.1" xmlns="http://www.w3.org/2000/svg" xmlns:xlink="http://www.w3.org/1999/xlink" xml:space="preserve" xmlns:serif="http://www.serif.com/" style="fill-rule:evenodd;clip-rule:evenodd;stroke-linejoin:round;stroke-miterlimit:2;"><g id="rain"><path d="M111.709,29.116l5.471,0c27.269,0 27.269,36.773 0,36.773l-97.278,0c-26.537,0 -26.537,-36.773 0,-36.773l7.124,0c0,-16.07 13.047,-29.116 29.116,-29.116c10.836,0 20.297,5.932 25.31,14.722c2.781,-1.29 5.879,-2.01 9.144,-2.01c10.166,0 18.714,6.979 21.111,16.403Z" style="fill:#adadad;"/><path d="M35.928,77.874l-8.108,30.261c-0.997,3.722 -6.136,2.345 -5.139,-1.377l8.108,-30.261c1.047,-3.906 6.186,-2.529 5.139,1.377Z" style="fill:#62a6ff;"/><path d="M59.123,77.874l-8.108,30.261c-0.997,3.722 -6.136,2.345 -5.139,-1.377l8.108,-30.261c1.047,-3.906 6.186,-2.529 5.139,1.377Z" style="fill:#62a6ff;"/><path d="M82.319,77.874l-8.108,30.261c-0.997,3.722 -6.136,2.345 -5.139,-1.377l8.108,-30.261c1.047,-3.906 6.186,-2.529 5.139,1.377Z" style="fill:#62a6ff;"/><path d="M105.515,77.874l-8.108,30.261c-0.997,3.722 -6.136,2.345 -5.139,-1.377l8.108,-30.261c1.047,-3.906 6.186,-2.529 5.139,1.377Z" style="fill:#62a6ff;"/></g></svg>