<?xml version="1.0" encoding="UTF-8" standalone="no"?><!DOCTYPE svg PUBLIC "-//W3C//DTD SVG 1.1//EN" "http://www.w3.org/Graphics/SVG/1.1/DTD/svg11.dtd"><svg width="100%" height="100%" viewBox="0 0 138 114" version="1.1" xmlns="http://www.w3.org/2000/svg" xmlns:xlink="http://www.w3.org/1999/xlink" xml:space="preserve" xmlns:serif="http://www.serif.com/" style="fill-rule:evenodd;clip-rule:evenodd;stroke-linejoin:round;stroke-miterlimit:2;"><g id="snow"><path d="M111.709,29.116l5.471,0c27.269,0 27.269,36.773 0,36.773l-97.278,0c-26.537,0 -26.537,-36.773 0,-36.773l7.124,0c0,-16.07 13.047,-29.116 29.116,-29.116c10.836,0 20.297,5.932 25.31,14.722c2.781,-1.29 5.879,-2.01 9.144,-2.01c10.166,0 18.714,6.979 21.111,16.403Z" style="fill:#adadad;"/><path d="M104.311,81.921l-6.371,3.678l-0,7.452c0,0.353 -0.287,0.64 -0.64,0.64c-0.353,0 -0.64,-0.287 -0.64,-0.64l-0,-6.713l-2.068,1.194l0,5.048c0,0.249 -0.202,0.451 -0.451,0.451c-0.249,0 -0.451,-0.202 -0.451,-0.451l0,-4.528l-3.112,1.797c0.189,1.02 -0.268,2.094 -1.217,2.641c-1.204,0.695 -2.745,0.282 -3.44,-0.922c-0.695,-1.204 -0.282,-2.745 0.922,-3.44c0.949,-0.548 2.108,-0.407 2.896,0.267l3,-1.732l-3.696,-2.134c-0.216,-0.124 -0.289,-0.4 -0.165,-0.616c0.124,-0.216 0.4,-0.289 0.616,-0.165l4.147,2.394l2.124,-1.226l-5.701,-3.292c-0.306,-0.177 -0.411,-0.568 -0.234,-0.874c0.177,-0.306 0.568,-0.411 0.874,-0.234l6.341,3.661l8.833,-5.099l-6.715,0l-2.504,2.456c-0.225,0.221 -0.591,0.221 -0.817,0c-0.225,-0.221 -0.225,-0.58 0,-0.801l2.233,-2.191l-2.152,-2.267c-0.217,-0.229 -0.204,-0.587 0.029,-0.801c0.233,-0.213 0.599,-0.2 0.816,0.028l2.318,2.442l6.11,0l-8.04,-4.642l-6.454,3.726c-0.306,0.177 -0.698,0.072 -0.874,-0.234c-0.177,-0.306 -0.072,-0.698 0.234,-0.874l5.814,-3.356l-2.068,-1.194l-4.372,2.524c-0.216,0.124 -0.492,0.05 -0.616,-0.165c-0.124,-0.216 -0.05,-0.492 0.165,-0.616l3.921,-2.264l-3.112,-1.797c-0.789,0.674 -1.947,0.814 -2.896,0.267c-1.204,-0.695 -1.617,-2.237 -0.922,-3.44c0.695,-1.204 2.237,-1.617 3.44,-0.922c0.949,0.548 1.406,1.622 1.217,2.641l3,1.732l0,-4.268c0,-0.249 0.202,-0.451 0.451,-0.451c0.249,0 0.451,0.202 0.451,0.451l0,4.789l2.124,1.226l-0,-6.583c0,-0.353 0.287,-0.64 0.64,-0.64c0.353,-0 0.64,0.287 0.64,0.64l0,7.322l7.801,4.504l-2.147,-3.719l-3.223,-0.816c-0.302,-0.076 -0.496,-0.387 -0.432,-0.693c0.064,-0.306 0.36,-0.492 0.662,-0.416l2.993,0.757l0.735,-3.003c0.074,-0.303 0.378,-0.478 0.677,-0.391c0.3,0.087 0.482,0.404 0.408,0.707l-0.824,3.367l2.052,3.554l-0,-8.79l-6.341,-3.661c-0.306,-0.177 -0.411,-0.568 -0.234,-0.874c0.177,-0.306 0.568,-0.411 0.874,-0.234l5.701,3.292l0,-2.388l-4.26,-2.459c-0.216,-0.124 -0.289,-0.4 -0.165,-0.616c0.124,-0.216 0.4,-0.289 0.616,-0.165l3.809,2.199l0,-3.392c-0.978,-0.346 -1.679,-1.279 -1.679,-2.375c0,-1.39 1.128,-2.518 2.518,-2.518c1.39,0 2.518,1.128 2.518,2.518c0,1.096 -0.701,2.029 -1.679,2.375l0,3.392l3.809,-2.199c0.216,-0.124 0.492,-0.05 0.616,0.165c0.124,0.216 0.05,0.492 -0.165,0.616l-4.26,2.459l0,2.452l5.814,-3.356c0.306,-0.177 0.698,-0.072 0.874,0.234c0.177,0.306 0.072,0.698 -0.234,0.874l-6.454,3.726l0,8.031l2.07,-3.585l-0.901,-3.206c-0.084,-0.3 0.088,-0.624 0.385,-0.723c0.297,-0.099 0.607,0.065 0.691,0.365l0.837,2.977l2.972,-0.871c0.3,-0.088 0.603,0.087 0.677,0.391c0.074,0.304 -0.11,0.622 -0.41,0.71l-3.332,0.977l-2.989,5.177l0,0.48l10.251,-5.918l0,-7.322c0,-0.353 0.287,-0.64 0.64,-0.64c0.353,-0 0.64,0.287 0.64,0.64l0,6.583l2.068,-1.194l0,-4.919c0,-0.249 0.202,-0.451 0.451,-0.451c0.249,0 0.451,0.202 0.451,0.451l-0,4.398l2.937,-1.696c-0.189,-1.02 0.268,-2.094 1.217,-2.641c1.204,-0.695 2.745,-0.282 3.44,0.922c0.695,1.204 0.282,2.745 -0.922,3.44c-0.949,0.548 -2.108,0.407 -2.896,-0.267l-2.937,1.696l3.809,2.199c0.216,0.124 0.289,0.4 0.165,0.616c-0.124,0.216 -0.4,0.289 -0.616,0.165l-4.26,-2.459l-2.124,1.226l5.814,3.356c0.306,0.177 0.411,0.568 0.234,0.874c-0.177,0.306 -0.568,0.411 -0.874,0.234l-6.454,-3.726l-8.158,4.71l3.471,0l2.318,-2.442c0.217,-0.229 0.583,-0.242 0.816,-0.028c0.233,0.213 0.246,0.572 0.029,0.801l-2.152,2.267l2.233,2.19c0.225,0.221 0.225,0.58 0,0.801c-0.225,0.221 -0.591,0.221 -0.817,-0l-2.504,-2.456l-4.075,0l8.951,5.168l6.341,-3.661c0.306,-0.177 0.698,-0.072 0.874,0.234c0.177,0.306 0.072,0.698 -0.234,0.874l-5.701,3.292l2.068,1.194l4.26,-2.459c0.216,-0.124 0.492,-0.05 0.616,0.165c0.124,0.216 0.05,0.492 -0.165,0.616l-3.809,2.199l2.937,1.696c0.789,-0.674 1.947,-0.814 2.896,-0.267c1.204,0.695 1.617,2.237 0.922,3.44c-0.695,1.204 -2.237,1.617 -3.44,0.922c-0.949,-0.548 -1.406,-1.622 -1.217,-2.641l-2.937,-1.696l0,4.398c0,0.249 -0.202,0.451 -0.451,0.451c-0.249,0 -0.451,-0.202 -0.451,-0.451l-0,-4.919l-2.124,-1.226l0,6.713c0,0.353 -0.287,0.64 -0.64,0.64c-0.353,0 -0.64,-0.287 -0.64,-0.64l0,-7.452l-9.236,-5.332l2.969,5.143l3.328,0.969c0.3,0.087 0.482,0.404 0.408,0.707c-0.074,0.303 -0.378,0.478 -0.677,0.391l-2.968,-0.865l-0.84,2.97c-0.085,0.3 -0.395,0.464 -0.691,0.366c-0.297,-0.098 -0.469,-0.421 -0.384,-0.721l0.905,-3.199l-3.065,-5.308l0,10.883l6.454,3.726c0.306,0.177 0.411,0.568 0.234,0.874c-0.177,0.306 -0.568,0.411 -0.874,0.234l-5.814,-3.356l0,2.388l4.372,2.524c0.216,0.124 0.289,0.4 0.165,0.616c-0.124,0.216 -0.4,0.289 -0.616,0.165l-3.921,-2.264l0,3.593c0.978,0.346 1.679,1.279 1.679,2.375c-0,1.39 -1.128,2.518 -2.518,2.518c-1.39,0 -2.518,-1.128 -2.518,-2.518c0,-1.096 0.701,-2.029 1.679,-2.375l0,-3.464l-3.696,2.134c-0.216,0.124 -0.492,0.05 -0.616,-0.165c-0.124,-0.216 -0.05,-0.492 0.165,-0.616l4.147,-2.394l0,-2.452l-5.701,3.292c-0.306,0.177 -0.698,0.072 -0.874,-0.234c-0.177,-0.306 -0.072,-0.698 0.234,-0.874l6.341,-3.661l-0,-11.162l-0.416,0.24l-2.657,4.603l0.82,3.374c0.074,0.304 -0.11,0.622 -0.41,0.71c-0.3,0.088 -0.603,-0.087 -0.677,-0.391l-0.731,-3.01l-2.996,0.764c-0.302,0.077 -0.599,-0.109 -0.662,-0.416c-0.063,-0.307 0.131,-0.618 0.433,-0.695l3.227,-0.823l1.738,-3.01Z" style="fill:#62a6ff;"/><path d="M62.541,85.851l-3.018,1.743l-0,3.53c0,0.167 -0.136,0.303 -0.303,0.303c-0.167,0 -0.303,-0.136 -0.303,-0.303l-0,-3.18l-0.98,0.566l0,2.392c0,0.118 -0.096,0.214 -0.214,0.214c-0.118,0 -0.214,-0.096 -0.214,-0.214l0,-2.145l-1.474,0.851c0.09,0.483 -0.127,0.992 -0.577,1.251c-0.57,0.329 -1.301,0.134 -1.63,-0.437c-0.329,-0.57 -0.134,-1.301 0.437,-1.63c0.45,-0.26 0.999,-0.193 1.372,0.126l1.421,-0.82l-1.751,-1.011c-0.102,-0.059 -0.137,-0.19 -0.078,-0.292c0.059,-0.102 0.19,-0.137 0.292,-0.078l1.965,1.134l1.006,-0.581l-2.701,-1.559c-0.145,-0.084 -0.195,-0.269 -0.111,-0.414c0.084,-0.145 0.269,-0.195 0.414,-0.111l3.004,1.734l4.184,-2.416l-3.181,0l-1.186,1.164c-0.107,0.105 -0.28,0.105 -0.387,0c-0.107,-0.105 -0.107,-0.275 0,-0.379l1.058,-1.038l-1.02,-1.074c-0.103,-0.108 -0.097,-0.278 0.014,-0.379c0.11,-0.101 0.284,-0.095 0.387,0.013l1.098,1.157l2.895,0l-3.809,-2.199l-3.057,1.765c-0.145,0.084 -0.33,0.034 -0.414,-0.111c-0.084,-0.145 -0.034,-0.33 0.111,-0.414l2.754,-1.59l-0.98,-0.566l-2.071,1.196c-0.102,0.059 -0.233,0.024 -0.292,-0.078c-0.059,-0.102 -0.024,-0.233 0.078,-0.292l1.858,-1.072l-1.474,-0.851c-0.374,0.319 -0.923,0.386 -1.372,0.126c-0.57,-0.329 -0.766,-1.06 -0.437,-1.63c0.329,-0.57 1.06,-0.766 1.63,-0.437c0.45,0.26 0.666,0.768 0.577,1.251l1.421,0.82l0,-2.022c0,-0.118 0.096,-0.214 0.214,-0.214c0.118,0 0.214,0.096 0.214,0.214l0,2.269l1.006,0.581l-0,-3.119c0,-0.167 0.136,-0.303 0.303,-0.303c0.167,0 0.303,0.136 0.303,0.303l0,3.469l3.696,2.134l-1.017,-1.762l-1.527,-0.386c-0.143,-0.036 -0.235,-0.183 -0.205,-0.328c0.03,-0.145 0.171,-0.233 0.314,-0.197l1.418,0.359l0.348,-1.423c0.035,-0.144 0.179,-0.227 0.321,-0.185c0.142,0.041 0.229,0.191 0.193,0.335l-0.391,1.595l0.972,1.684l-0,-4.164l-3.004,-1.734c-0.145,-0.084 -0.195,-0.269 -0.111,-0.414c0.084,-0.145 0.269,-0.195 0.414,-0.111l2.701,1.559l0,-1.131l-2.018,-1.165c-0.102,-0.059 -0.137,-0.19 -0.078,-0.292c0.059,-0.102 0.19,-0.137 0.292,-0.078l1.804,1.042l0,-1.607c-0.463,-0.164 -0.795,-0.606 -0.795,-1.125c0,-0.659 0.535,-1.193 1.193,-1.193c0.659,0 1.193,0.535 1.193,1.193c0,0.519 -0.332,0.961 -0.795,1.125l0,1.607l1.804,-1.042c0.102,-0.059 0.233,-0.024 0.292,0.078c0.059,0.102 0.024,0.233 -0.078,0.292l-2.018,1.165l0,1.162l2.754,-1.59c0.145,-0.084 0.33,-0.034 0.414,0.111c0.084,0.145 0.034,0.33 -0.111,0.414l-3.057,1.765l0,3.805l0.981,-1.698l-0.427,-1.519c-0.04,-0.142 0.042,-0.296 0.183,-0.343c0.141,-0.047 0.287,0.031 0.327,0.173l0.396,1.41l1.408,-0.413c0.142,-0.042 0.286,0.041 0.321,0.185c0.035,0.144 -0.052,0.295 -0.194,0.336l-1.579,0.463l-1.416,2.453l0,0.228l4.856,-2.804l0,-3.469c0,-0.167 0.136,-0.303 0.303,-0.303c0.167,-0 0.303,0.136 0.303,0.303l0,3.119l0.98,-0.566l0,-2.33c0,-0.118 0.096,-0.214 0.214,-0.214c0.118,0 0.214,0.096 0.214,0.214l-0,2.084l1.392,-0.803c-0.09,-0.483 0.127,-0.992 0.577,-1.251c0.57,-0.329 1.301,-0.134 1.63,0.437c0.329,0.57 0.134,1.301 -0.437,1.63c-0.45,0.26 -0.999,0.193 -1.372,-0.126l-1.392,0.803l1.804,1.042c0.102,0.059 0.137,0.19 0.078,0.292c-0.059,0.102 -0.19,0.137 -0.292,0.078l-2.018,-1.165l-1.006,0.581l2.754,1.59c0.145,0.084 0.195,0.269 0.111,0.414c-0.084,0.145 -0.269,0.195 -0.414,0.111l-3.057,-1.765l-3.865,2.231l1.645,0l1.098,-1.157c0.103,-0.108 0.276,-0.114 0.387,-0.013c0.11,0.101 0.117,0.271 0.014,0.379l-1.02,1.074l1.058,1.038c0.107,0.105 0.107,0.275 0,0.379c-0.107,0.105 -0.28,0.105 -0.387,-0l-1.186,-1.164l-1.931,0l4.241,2.448l3.004,-1.734c0.145,-0.084 0.33,-0.034 0.414,0.111c0.084,0.145 0.034,0.33 -0.111,0.414l-2.701,1.559l0.98,0.566l2.018,-1.165c0.102,-0.059 0.233,-0.024 0.292,0.078c0.059,0.102 0.024,0.233 -0.078,0.292l-1.804,1.042l1.392,0.803c0.374,-0.319 0.923,-0.386 1.372,-0.126c0.57,0.329 0.766,1.06 0.437,1.63c-0.329,0.57 -1.06,0.766 -1.63,0.437c-0.45,-0.26 -0.666,-0.768 -0.577,-1.251l-1.392,-0.803l0,2.084c0,0.118 -0.096,0.214 -0.214,0.214c-0.118,0 -0.214,-0.096 -0.214,-0.214l-0,-2.33l-1.006,-0.581l0,3.18c0,0.167 -0.136,0.303 -0.303,0.303c-0.167,0 -0.303,-0.136 -0.303,-0.303l0,-3.53l-4.376,-2.526l1.407,2.437l1.577,0.459c0.142,0.041 0.229,0.191 0.193,0.335c-0.035,0.144 -0.179,0.227 -0.321,0.185l-1.406,-0.41l-0.398,1.407c-0.04,0.142 -0.187,0.22 -0.327,0.173c-0.141,-0.046 -0.222,-0.199 -0.182,-0.341l0.429,-1.516l-1.452,-2.515l0,5.156l3.057,1.765c0.145,0.084 0.195,0.269 0.111,0.414c-0.084,0.145 -0.269,0.195 -0.414,0.111l-2.754,-1.59l0,1.131l2.071,1.196c0.102,0.059 0.137,0.19 0.078,0.292c-0.059,0.102 -0.19,0.137 -0.292,0.078l-1.858,-1.072l0,1.702c0.463,0.164 0.795,0.606 0.795,1.125c-0,0.659 -0.535,1.193 -1.193,1.193c-0.659,0 -1.193,-0.535 -1.193,-1.193c0,-0.519 0.332,-0.961 0.795,-1.125l0,-1.641l-1.751,1.011c-0.102,0.059 -0.233,0.024 -0.292,-0.078c-0.059,-0.102 -0.024,-0.233 0.078,-0.292l1.965,-1.134l0,-1.162l-2.701,1.559c-0.145,0.084 -0.33,0.034 -0.414,-0.111c-0.084,-0.145 -0.034,-0.33 0.111,-0.414l3.004,-1.734l-0,-5.288l-0.197,0.114l-1.259,2.181l0.389,1.599c0.035,0.144 -0.052,0.295 -0.194,0.336c-0.142,0.042 -0.286,-0.041 -0.321,-0.185l-0.347,-1.426l-1.419,0.362c-0.143,0.037 -0.284,-0.052 -0.314,-0.197c-0.03,-0.145 0.062,-0.293 0.205,-0.329l1.529,-0.39l0.823,-1.426Z" style="fill:#62a6ff;"/><path d="M21.725,83.028l-3.018,1.743l-0,3.53c0,0.167 -0.136,0.303 -0.303,0.303c-0.167,0 -0.303,-0.136 -0.303,-0.303l-0,-3.18l-0.98,0.566l0,2.392c0,0.118 -0.096,0.214 -0.214,0.214c-0.118,0 -0.214,-0.096 -0.214,-0.214l0,-2.145l-1.474,0.851c0.09,0.483 -0.127,0.992 -0.577,1.251c-0.57,0.329 -1.301,0.134 -1.63,-0.437c-0.329,-0.57 -0.134,-1.301 0.437,-1.63c0.45,-0.26 0.999,-0.193 1.372,0.126l1.421,-0.82l-1.751,-1.011c-0.102,-0.059 -0.137,-0.19 -0.078,-0.292c0.059,-0.102 0.19,-0.137 0.292,-0.078l1.965,1.134l1.006,-0.581l-2.701,-1.559c-0.145,-0.084 -0.195,-0.269 -0.111,-0.414c0.084,-0.145 0.269,-0.195 0.414,-0.111l3.004,1.734l4.184,-2.416l-3.181,0l-1.186,1.164c-0.107,0.105 -0.28,0.105 -0.387,0c-0.107,-0.105 -0.107,-0.275 0,-0.379l1.058,-1.038l-1.02,-1.074c-0.103,-0.108 -0.097,-0.278 0.014,-0.379c0.11,-0.101 0.284,-0.095 0.387,0.013l1.098,1.157l2.895,0l-3.809,-2.199l-3.057,1.765c-0.145,0.084 -0.33,0.034 -0.414,-0.111c-0.084,-0.145 -0.034,-0.33 0.111,-0.414l2.754,-1.59l-0.98,-0.566l-2.071,1.196c-0.102,0.059 -0.233,0.024 -0.292,-0.078c-0.059,-0.102 -0.024,-0.233 0.078,-0.292l1.858,-1.072l-1.474,-0.851c-0.374,0.319 -0.923,0.386 -1.372,0.126c-0.57,-0.329 -0.766,-1.06 -0.437,-1.63c0.329,-0.57 1.06,-0.766 1.63,-0.437c0.45,0.26 0.666,0.768 0.577,1.251l1.421,0.82l0,-2.022c0,-0.118 0.096,-0.214 0.214,-0.214c0.118,0 0.214,0.096 0.214,0.214l0,2.269l1.006,0.581l-0,-3.119c0,-0.167 0.136,-0.303 0.303,-0.303c0.167,0 0.303,0.136 0.303,0.303l0,3.469l3.696,2.134l-1.017,-1.762l-1.527,-0.386c-0.143,-0.036 -0.235,-0.183 -0.205,-0.328c0.03,-0.145 0.171,-0.233 0.314,-0.197l1.418,0.359l0.348,-1.423c0.035,-0.144 0.179,-0.227 0.321,-0.185c0.142,0.041 0.229,0.191 0.193,0.335l-0.391,1.595l0.972,1.684l-0,-4.164l-3.004,-1.734c-0.145,-0.084 -0.195,-0.269 -0.111,-0.414c0.084,-0.145 0.269,-0.195 0.414,-0.111l2.701,1.559l0,-1.131l-2.018,-1.165c-0.102,-0.059 -0.137,-0.19 -0.078,-0.292c0.059,-0.102 0.19,-0.137 0.292,-0.078l1.804,1.042l0,-1.607c-0.463,-0.164 -0.795,-0.606 -0.795,-1.125c0,-0.659 0.535,-1.193 1.193,-1.193c0.659,0 1.193,0.535 1.193,1.193c0,0.519 -0.332,0.961 -0.795,1.125l0,1.607l1.804,-1.042c0.102,-0.059 0.233,-0.024 0.292,0.078c0.059,0.102 0.024,0.233 -0.078,0.292l-2.018,1.165l0,1.162l2.754,-1.59c0.145,-0.084 0.33,-0.034 0.414,0.111c0.084,0.145 0.034,0.33 -0.111,0.414l-3.057,1.765l0,3.805l0.981,-1.698l-0.427,-1.519c-0.04,-0.142 0.042,-0.296 0.183,-0.343c0.141,-0.047 0.287,0.031 0.327,0.173l0.396,1.41l1.408,-0.413c0.142,-0.042 0.286,0.041 0.321,0.185c0.035,0.144 -0.052,0.295 -0.194,0.336l-1.579,0.463l-1.416,2.453l0,0.228l4.856,-2.804l0,-3.469c0,-0.167 0.136,-0.303 0.303,-0.303c0.167,-0 0.303,0.136 0.303,0.303l0,3.119l0.98,-0.566l0,-2.33c0,-0.118 0.096,-0.214 0.214,-0.214c0.118,0 0.214,0.096 0.214,0.214l-0,2.084l1.392,-0.803c-0.09,-0.483 0.127,-0.992 0.577,-1.251c0.57,-0.329 1.301,-0.134 1.63,0.437c0.329,0.57 0.134,1.301 -0.437,1.63c-0.45,0.26 -0.999,0.193 -1.372,-0.126l-1.392,0.803l1.804,1.042c0.102,0.059 0.137,0.19 0.078,0.292c-0.059,0.102 -0.19,0.137 -0.292,0.078l-2.018,-1.165l-1.006,0.581l2.754,1.59c0.145,0.084 0.195,0.269 0.111,0.414c-0.084,0.145 -0.269,0.195 -0.414,0.111l-3.057,-1.765l-3.865,2.231l1.645,0l1.098,-1.157c0.103,-0.108 0.276,-0.114 0.387,-0.013c0.11,0.101 0.117,0.271 0.014,0.379l-1.02,1.074l1.058,1.038c0.107,0.105 0.107,0.275 0,0.379c-0.107,0.105 -0.28,0.105 -0.387,-0l-1.186,-1.164l-1.931,0l4.241,2.448l3.004,-1.734c0.145,-0.084 0.33,-0.034 0.414,0.111c0.084,0.145 0.034,0.33 -0.111,0.414l-2.701,1.559l0.98,0.566l2.018,-1.165c0.102,-0.059 0.233,-0.024 0.292,0.078c0.059,0.102 0.024,0.233 -0.078,0.292l-1.804,1.042l1.392,0.803c0.374,-0.319 0.923,-0.386 1.372,-0.126c0.57,0.329 0.766,1.06 0.437,1.63c-0.329,0.57 -1.06,0.766 -1.63,0.437c-0.45,-0.26 -0.666,-0.768 -0.577,-1.251l-1.392,-0.803l0,2.084c0,0.118 -0.096,0.214 -0.214,0.214c-0.118,0 -0.214,-0.096 -0.214,-0.214l-0,-2.33l-1.006,-0.581l0,3.18c0,0.167 -0.136,0.303 -0.303,0.303c-0.167,0 -0.303,-0.136 -0.303,-0.303l0,-3.53l-4.376,-2.526l1.407,2.437l1.577,0.459c0.142,0.041 0.229,0.191 0.193,0.335c-0.035,0.144 -0.179,0.227 -0.321,0.185l-1.406,-0.41l-0.398,1.407c-0.04,0.142 -0.187,0.22 -0.327,0.173c-0.141,-0.046 -0.222,-0.199 -0.182,-0.341l0.429,-1.516l-1.452,-2.515l0,5.156l3.057,1.765c0.145,0.084 0.195,0.269 0.111,0.414c-0.084,0.145 -0.269,0.195 -0.414,0.111l-2.754,-1.59l0,1.131l2.071,1.196c0.102,0.059 0.137,0.19 0.078,0.292c-0.059,0.102 -0.19,0.137 -0.292,0.078l-1.858,-1.072l0,1.702c0.463,0.164 0.795,0.606 0.795,1.125c-0,0.659 -0.535,1.193 -1.193,1.193c-0.659,0 -1.193,-0.535 -1.193,-1.193c0,-0.519 0.332,-0.961 0.795,-1.125l0,-1.641l-1.751,1.011c-0.102,0.059 -0.233,0.024 -0.292,-0.078c-0.059,-0.102 -0.024,-0.233 0.078,-0.292l1.965,-1.134l0,-1.162l-2.701,1.559c-0.145,0.084 -0.33,0.034 -0.414,-0.111c-0.084,-0.145 -0.034,-0.33 0.111,-0.414l3.004,-1.734l-0,-5.288l-0.197,0.114l-1.259,2.181l0.389,1.599c0.035,0.144 -0.052,0.295 -0.194,0.336c-0.142,0.042 -0.286,-0.041 -0.321,-0.185l-0.347,-1.426l-1.419,0.362c-0.143,0.037 -0.284,-0.052 -0.314,-0.197c-0.03,-0.145 0.062,-0.293 0.205,-0.329l1.529,-0.39l0.823,-1.426Z" style="fill:#62a6ff;"/><path d="M42.133,102.134l-3.018,1.743l-0,3.53c0,0.167 -0.136,0.303 -0.303,0.303c-0.167,0 -0.303,-0.136 -0.303,-0.303l-0,-3.18l-0.98,0.566l0,2.392c0,0.118 -0.096,0.214 -0.214,0.214c-0.118,0 -0.214,-0.096 -0.214,-0.214l0,-2.145l-1.474,0.851c0.09,0.483 -0.127,0.992 -0.577,1.251c-0.57,0.329 -1.301,0.134 -1.63,-0.437c-0.329,-0.57 -0.134,-1.301 0.437,-1.63c0.45,-0.26 0.999,-0.193 1.372,0.126l1.421,-0.82l-1.751,-1.011c-0.102,-0.059 -0.137,-0.19 -0.078,-0.292c0.059,-0.102 0.19,-0.137 0.292,-0.078l1.965,1.134l1.006,-0.581l-2.701,-1.559c-0.145,-0.084 -0.195,-0.269 -0.111,-0.414c0.084,-0.145 0.269,-0.195 0.414,-0.111l3.004,1.734l4.184,-2.416l-3.181,0l-1.186,1.164c-0.107,0.105 -0.28,0.105 -0.387,0c-0.107,-0.105 -0.107,-0.275 0,-0.379l1.058,-1.038l-1.02,-1.074c-0.103,-0.108 -0.097,-0.278 0.014,-0.379c0.11,-0.101 0.284,-0.095 0.387,0.013l1.098,1.157l2.895,0l-3.809,-2.199l-3.057,1.765c-0.145,0.084 -0.33,0.034 -0.414,-0.111c-0.084,-0.145 -0.034,-0.33 0.111,-0.414l2.754,-1.59l-0.98,-0.566l-2.071,1.196c-0.102,0.059 -0.233,0.024 -0.292,-0.078c-0.059,-0.102 -0.024,-0.233 0.078,-0.292l1.858,-1.072l-1.474,-0.851c-0.374,0.319 -0.923,0.386 -1.372,0.126c-0.57,-0.329 -0.766,-1.06 -0.437,-1.63c0.329,-0.57 1.06,-0.766 1.63,-0.437c0.45,0.26 0.666,0.768 0.577,1.251l1.421,0.82l0,-2.022c0,-0.118 0.096,-0.214 0.214,-0.214c0.118,0 0.214,0.096 0.214,0.214l0,2.269l1.006,0.581l-0,-3.119c0,-0.167 0.136,-0.303 0.303,-0.303c0.167,0 0.303,0.136 0.303,0.303l0,3.469l3.696,2.134l-1.017,-1.762l-1.527,-0.386c-0.143,-0.036 -0.235,-0.183 -0.205,-0.328c0.03,-0.145 0.171,-0.233 0.314,-0.197l1.418,0.359l0.348,-1.423c0.035,-0.144 0.179,-0.227 0.321,-0.185c0.142,0.041 0.229,0.191 0.193,0.335l-0.391,1.595l0.972,1.684l-0,-4.164l-3.004,-1.734c-0.145,-0.084 -0.195,-0.269 -0.111,-0.414c0.084,-0.145 0.269,-0.195 0.414,-0.111l2.701,1.559l0,-1.131l-2.018,-1.165c-0.102,-0.059 -0.137,-0.19 -0.078,-0.292c0.059,-0.102 0.19,-0.137 0.292,-0.078l1.804,1.042l0,-1.607c-0.463,-0.164 -0.795,-0.606 -0.795,-1.125c0,-0.659 0.535,-1.193 1.193,-1.193c0.659,0 1.193,0.535 1.193,1.193c0,0.519 -0.332,0.961 -0.795,1.125l0,1.607l1.804,-1.042c0.102,-0.059 0.233,-0.024 0.292,0.078c0.059,0.102 0.024,0.233 -0.078,0.292l-2.018,1.165l0,1.162l2.754,-1.59c0.145,-0.084 0.33,-0.034 0.414,0.111c0.084,0.145 0.034,0.33 -0.111,0.414l-3.057,1.765l0,3.805l0.981,-1.698l-0.427,-1.519c-0.04,-0.142 0.042,-0.296 0.183,-0.343c0.141,-0.047 0.287,0.031 0.327,0.173l0.396,1.41l1.408,-0.413c0.142,-0.042 0.286,0.041 0.321,0.185c0.035,0.144 -0.052,0.295 -0.194,0.336l-1.579,0.463l-1.416,2.453l0,0.228l4.856,-2.804l0,-3.469c0,-0.167 0.136,-0.303 0.303,-0.303c0.167,-0 0.303,0.136 0.303,0.303l0,3.119l0.98,-0.566l0,-2.33c0,-0.118 0.096,-0.214 0.214,-0.214c0.118,0 0.214,0.096 0.214,0.214l-0,2.084l1.392,-0.803c-0.09,-0.483 0.127,-0.992 0.577,-1.251c0.57,-0.329 1.301,-0.134 1.63,0.437c0.329,0.57 0.134,1.301 -0.437,1.63c-0.45,0.26 -0.999,0.193 -1.372,-0.126l-1.392,0.803l1.804,1.042c0.102,0.059 0.137,0.19 0.078,0.292c-0.059,0.102 -0.19,0.137 -0.292,0.078l-2.018,-1.165l-1.006,0.581l2.754,1.59c0.145,0.084 0.195,0.269 0.111,0.414c-0.084,0.145 -0.269,0.195 -0.414,0.111l-3.057,-1.765l-3.865,2.231l1.645,0l1.098,-1.157c0.103,-0.108 0.276,-0.114 0.387,-0.013c0.11,0.101 0.117,0.271 0.014,0.379l-1.02,1.074l1.058,1.038c0.107,0.105 0.107,0.275 0,0.379c-0.107,0.105 -0.28,0.105 -0.387,-0l-1.186,-1.164l-1.931,0l4.241,2.448l3.004,-1.734c0.145,-0.084 0.33,-0.034 0.414,0.111c0.084,0.145 0.034,0.33 -0.111,0.414l-2.701,1.559l0.98,0.566l2.018,-1.165c0.102,-0.059 0.233,-0.024 0.292,0.078c0.059,0.102 0.024,0.233 -0.078,0.292l-1.804,1.042l1.392,0.803c0.374,-0.319 0.923,-0.386 1.372,-0.126c0.57,0.329 0.766,1.06 0.437,1.63c-0.329,0.57 -1.06,0.766 -1.63,0.437c-0.45,-0.26 -0.666,-0.768 -0.577,-1.251l-1.392,-0.803l0,2.084c0,0.118 -0.096,0.214 -0.214,0.214c-0.118,0 -0.214,-0.096 -0.214,-0.214l-0,-2.33l-1.006,-0.581l0,3.18c0,0.167 -0.136,0.303 -0.303,0.303c-0.167,0 -0.303,-0.136 -0.303,-0.303l0,-3.53l-4.376,-2.526l1.407,2.437l1.577,0.459c0.142,0.041 0.229,0.191 0.193,0.335c-0.035,0.144 -0.179,0.227 -0.321,0.185l-1.406,-0.41l-0.398,1.407c-0.04,0.142 -0.187,0.22 -0.327,0.173c-0.141,-0.046 -0.222,-0.199 -0.182,-0.341l0.429,-1.516l-1.452,-2.515l0,5.156l3.057,1.765c0.145,0.084 0.195,0.269 0.111,0.414c-0.084,0.145 -0.269,0.195 -0.414,0.111l-2.754,-1.59l0,1.131l2.071,1.196c0.102,0.059 0.137,0.19 0.078,0.292c-0.059,0.102 -0.19,0.137 -0.292,0.078l-1.858,-1.072l0,1.702c0.463,0.164 0.795,0.606 0.795,1.125c-0,0.659 -0.535,1.193 -1.193,1.193c-0.659,0 -1.193,-0.535 -1.193,-1.193c0,-0.519 0.332,-0.961 0.795,-1.125l0,-1.641l-1.751,1.011c-0.102,0.059 -0.233,0.024 -0.292,-0.078c-0.059,-0.102 -0.024,-0.233 0.078,-0.292l1.965,-1.134l0,-1.162l-2.701,1.559c-0.145,0.084 -0.33,0.034 -0.414,-0.111c-0.084,-0.145 -0.034,-0.33 0.111,-0.414l3.004,-1.734l-0,-5.288l-0.197,0.114l-1.259,2.181l0.389,1.599c0.035,0.144 -0.052,0.295 -0.194,0.336c-0.142,0.042 -0.286,-0.041 -0.321,-0.185l-0.347,-1.426l-1.419,0.362c-0.143,0.037 -0.284,-0.052 -0.314,-0.197c-0.03,-0.145 0.062,-0.293 0.205,-0.329l1.529,-0.39l0.823,-1.426Z" style="fill:#62a6ff;"/></g></svg>