<?xml version="1.0" encoding="UTF-8" standalone="no"?><!DOCTYPE svg PUBLIC "-//W3C//DTD SVG 1.1//EN" "http://www.w3.org/Graphics/SVG/1.1/DTD/svg11.dtd"><svg width="100%" height="100%" viewBox="0 0 121 121" version="1.1" xmlns="http://www.w3.org/2000/svg" xmlns:xlink="http://www.w3.org/1999/xlink" xml:space="preserve" xmlns:serif="http://www.serif.com/" style="fill-rule:evenodd;clip-rule:evenodd;stroke-linejoin:round;stroke-miterlimit:2;"><path id="sun" d="M10.891,67.133l-9.741,-4.87c-1.527,-0.784 -1.565,-3.043 0.076,-3.876l9.588,-4.794c1.142,-8.794 4.576,-16.872 9.681,-23.617l-3.377,-10.132c-0.526,-1.635 1.046,-3.26 2.794,-2.689l0.011,0.004l9.982,3.327c6.775,-5.218 14.926,-8.738 23.81,-9.918l4.709,-9.418c0.784,-1.527 3.043,-1.565 3.876,0.076l4.671,9.343c8.883,1.18 17.032,4.698 23.806,9.915l10.053,-3.351l0.011,-0.004c1.635,-0.526 3.259,1.047 2.688,2.796l-3.347,10.04c5.11,6.747 8.547,14.83 9.69,23.629l9.664,4.832c1.527,0.784 1.565,3.043 -0.076,3.876l-9.665,4.833c-1.225,8.649 -4.668,16.588 -9.735,23.223l3.496,10.487c0.526,1.635 -1.046,3.26 -2.794,2.689l-0.011,-0.004l-10.456,-3.485c-6.605,4.96 -14.477,8.322 -23.04,9.509l-4.993,9.985c-0.784,1.527 -3.043,1.565 -3.876,-0.076l-4.955,-9.91c-8.565,-1.188 -16.438,-4.551 -23.044,-9.512l-10.545,3.515l-0.011,0.004c-1.635,0.526 -3.259,-1.047 -2.688,-2.796l3.473,-10.419c-5.062,-6.632 -8.503,-14.567 -9.726,-23.211Z" style="fill:#ff9300;"/></svg>